<svg xmlns="http://www.w3.org/2000/svg" version="1.1" xmlns:xlink="http://www.w3.org/1999/xlink" width="1500" height="1500" viewBox="0 0 1500 1500"><rect width="1500" height="1500" x="0" y="0" id="background" stroke="transparent" fill="#0b0b0b"></rect><svg xml:space="preserve" width="1000" height="1000" data-version="2" data-id="lg_mgEPk6CDBn6WEg6gWk" viewBox="0 0 572 188" x="250" y="250"><rect width="100%" height="100%" fill="transparent"></rect><path fill="#757575" d="M64.31 98.486H13.63v-1.74h7.95v-67.37h-7.95v-1.74h29.43v1.74H32.92v67.37h5.56q8.28 0 12.75-.82 4.47-.82 7.3-3.87 2.84-3.05 3.77-7.41.92-4.36 1.36-12.86h1.74z"></path><rect width="51.77" height="70.85" x="-25.89" y="-35.42" fill="none" rx="0" ry="0" transform="translate(40.02 63.56)"></rect><path fill="#757575" d="M95.92 46.166q16.57 0 16.57 11.23 0 3.27-2.13 5.5-2.12 2.24-5.01 2.24-2.89 0-4.69-1.69-1.8-1.69-1.8-4.14 0-2.46 1.42-4.15 1.42-1.69 3.82-1.69 3.7 0 4.36 2.84.11.98 1.03.98.93 0 .93-.98 0-3.05-3-5.51-3-2.45-9.15-2.45-6.16 0-10.14 2.29-3.98 2.29-3.98 6.38 0 4.08 3.16 6.59t7.63 4.14q4.47 1.64 8.99 3.44 4.53 1.79 7.69 5.17t3.16 8.18q0 8.17-5.83 12.15-5.83 3.98-14.45 3.98-8.61 0-13.84-3.05t-5.23-9.27q0-3.27 2.13-5.5 2.12-2.24 5.01-2.24 2.89 0 4.69 1.69 1.79 1.69 1.79 4.15 0 2.45-1.41 4.14-1.42 1.69-3.82 1.69-3.7 0-4.36-2.84-.11-.98-1.03-.98-.93 0-.93.98 0 3.27 3.65 6.16T92 98.486q15.8 0 15.8-10.25 0-6.32-10.79-10.24-4.58-1.64-9.05-3.43-4.46-1.8-7.63-5.18-3.16-3.38-3.16-8.18 0-6.97 5.51-11.01 5.5-4.03 13.24-4.03"></path><rect width="39.35" height="54.5" x="-19.68" y="-27.25" fill="none" rx="0" ry="0" transform="translate(95.6 73.92)"></rect><path fill="#757575" d="M117.61 119.636h53.85v2.29h-53.85z"></path><rect width="53.85" height="2.29" x="-26.93" y="-1.15" fill="none" rx="0" ry="0" transform="translate(145.03 121.28)"></rect><path fill="#757575" d="M194.46 46.166q12.97 0 17.17 5.83 4.19 5.83 4.19 20.33v19.29q0 4.47 1.96 4.47 4.04 0 5.34-12.53l1.97.22q-1.64 16.89-11.01 16.89-2.73 0-4.2-1.96-1.47-1.96-1.85-4.31-.38-2.34-.38-5.83h-.66q-1.41 5.78-5.77 8.94-4.36 3.16-11.18 3.16-6.81 0-11.93-3.65-5.13-3.65-5.13-10.52 0-5.12 2.95-8.5 6.1-6.98 27.68-6.98h2.51v-5.34q0-8.61-2.94-12.97-2.95-4.36-10.19-4.36-7.25 0-10.63 2.94-3.38 2.95-3.38 6.11 0 .98.93.98.92 0 1.03-.98.66-2.84 4.36-2.84 2.4 0 3.82 1.69 1.41 1.69 1.41 4.15 0 2.45-1.79 4.14-1.8 1.69-4.69 1.69-2.89 0-5.02-2.24-2.12-2.23-2.12-5.5 0-6.11 5.12-9.21 5.12-3.11 12.43-3.11m11.66 34.12v-7.31h-3.43q-2.35 0-5.56.33-3.22.33-6.6 1.64-6.97 2.5-6.97 11.11 0 5.24 2.5 8.4 2.51 3.16 8.07 3.16 5.56 0 8.78-5.02 3.21-5.01 3.21-12.31"></path><rect width="52.11" height="54.5" x="-26.05" y="-27.25" fill="none" rx="0" ry="0" transform="translate(199.53 73.92)"></rect><path fill="#757575" d="M246.67 96.856h7.19v1.63h-24.09v-1.63h7.2v-46.87h-7.74v-1.64h2.29q8.61 0 15.37-1.42v10.9h.65q1.85-5.23 6.27-8.44 4.41-3.22 9.86-3.22 9.49 0 12.97 5.61 3.49 5.62 3.49 16.74v28.34h7.2v1.63h-24.09v-1.63h7.19v-26.82q0-12.32-1.85-16.24-.87-1.74-2.67-3.16-1.8-1.42-5.29-1.42t-6.59 2.51q-3.11 2.51-4.64 6.87-2.72 7.74-2.72 18.53z"></path><rect width="58.1" height="52.32" x="-29.05" y="-26.16" fill="none" rx="0" ry="0" transform="translate(258.78 72.83)"></rect><path fill="#757575" d="M310.98 46.926v49.93h7.19v1.63h-24.09v-1.63h7.2v-46.87h-7.74v-1.64h2.29q8.5 0 15.15-1.42m-9.76-10.51q-1.8-1.8-1.8-4.53 0-2.72 1.8-4.58 1.8-1.85 4.53-1.85 2.72 0 4.57 1.85 1.86 1.86 1.86 4.58 0 2.73-1.86 4.53-1.85 1.79-4.57 1.79-2.73 0-4.53-1.79"></path><rect width="24.63" height="73.03" x="-12.31" y="-36.52" fill="none" rx="0" ry="0" transform="translate(306.36 62.47)"></rect><path fill="#757575" d="M343.02 96.856h7.2v1.63h-24.09v-1.63h7.19v-46.87h-7.74v-1.64h2.29q8.61 0 15.37-1.42v10.9h.66q1.85-5.23 6.1-8.44 4.25-3.22 9.7-3.22 12.97 0 15.37 11.66h.65q1.86-5.23 6.11-8.44 4.25-3.22 9.7-3.22 9.37 0 12.53 5.45 3.17 5.45 3.17 16.9v28.34h7.19v1.63h-24.09v-1.63h7.19v-30.85q0-12.43-3.59-15.48-1.75-1.31-4.47-1.31-14.61 0-14.61 27.91v19.73h7.2v1.63H358.5v-1.63h7.2v-30.85q0-12.43-3.6-15.48-1.74-1.31-4.47-1.31-14.61 0-14.61 27.91z"></path><rect width="88.84" height="52.32" x="-44.42" y="-26.16" fill="none" rx="0" ry="0" transform="translate(370.5 72.83)"></rect><path fill="#757575" d="M442.87 46.166q12.97 0 17.17 5.83 4.19 5.83 4.19 20.33v19.29q0 4.47 1.96 4.47 4.04 0 5.35-12.53l1.96.22q-1.64 16.89-11.01 16.89-2.73 0-4.2-1.96-1.47-1.96-1.85-4.31-.38-2.34-.38-5.83h-.66q-1.41 5.78-5.77 8.94-4.36 3.16-11.18 3.16-6.81 0-11.93-3.65t-5.12-10.52q0-5.12 2.94-8.5 6.1-6.98 27.68-6.98h2.51v-5.34q0-8.61-2.94-12.97-2.94-4.36-10.19-4.36t-10.63 2.94q-3.38 2.95-3.38 6.11 0 .98.93.98.92 0 1.03-.98.66-2.84 4.36-2.84 2.4 0 3.82 1.69 1.41 1.69 1.41 4.15 0 2.45-1.79 4.14-1.8 1.69-4.69 1.69-2.89 0-5.01-2.24-2.13-2.23-2.13-5.5 0-6.11 5.12-9.21 5.13-3.11 12.43-3.11m11.66 34.12v-7.31h-3.43q-2.35 0-5.56.33-3.22.33-6.6 1.64-6.97 2.5-6.97 11.11 0 5.24 2.51 8.4 2.5 3.16 8.06 3.16 5.56 0 8.78-5.02 3.21-5.01 3.21-12.31"></path><rect width="52.1" height="54.5" x="-26.05" y="-27.25" fill="none" rx="0" ry="0" transform="translate(447.95 73.92)"></rect><path fill="#757575" d="M508.27 49.986h-13.19v37.06q0 9.15 1.2 10.13.65.55 1.74.55 2.73 0 5.29-3.16t4.2-6.87l1.74.65q-2.07 5.24-5.56 8.78-3.49 3.54-8.07 3.54-6.43 0-8.33-3.87-1.91-3.87-1.91-12.15v-34.66h-7.74v-1.64h.76q12.54 0 15.26-14.39h1.42v14.39h13.19z"></path><rect width="31.61" height="66.71" x="-15.8" y="-33.35" fill="none" rx="0" ry="0" transform="translate(493.94 67.81)"></rect><path fill="#757575" d="M539.77 46.166q8.17 0 13.68 3.49 5.5 3.49 5.5 10.46 0 10.79-12.31 13.3-6.22 1.2-15.48 1.2h-5.12v3.16q0 8.83 3.65 14.33 3.65 5.51 10.68 5.51 7.03 0 11.01-4.14 3.98-4.15 5.61-10.69l1.96.22q-1.74 7.96-7.03 12.81-5.28 4.85-13.35 4.85-11.34 0-17.22-7.47-5.89-7.46-5.89-19.78t6.32-19.78q6.33-7.47 17.99-7.47m-13.73 23.44v3.05h3.81q8.83 0 12.37-1.75 3.54-1.74 4.85-4.3 1.31-2.56 1.31-7.25 0-4.69-2.34-8.01-2.35-3.33-7.14-3.33-4.8 0-7.8 3.44-2.99 3.43-4.03 8.01-1.03 4.58-1.03 10.14"></path><rect width="43.49" height="54.5" x="-21.75" y="-27.25" fill="none" rx="0" ry="0" transform="translate(537.7 73.92)"></rect><rect width="560" height="124.25" x="-280" y="-62.12" fill="none" rx="0" ry="0" transform="translate(286 64.7)"></rect><path fill="#ededed" d="M231.993 172.081q-2.83 0-5.12-1.14-2.28-1.13-3.63-2.76l1.17-4.89q.99 1.99 2.98 3.58 1.98 1.59 4.74 1.59 2.52 0 4.16-1.59 1.65-1.59 1.65-3.93 0-1.7-.81-2.8-.82-1.1-1.85-1.73-1.02-.64-1.63-.93l-3.89-1.98q-.92-.49-2.29-1.38-1.36-.89-2.39-2.44-1.02-1.56-1.02-4.04 0-2.41 1.11-4.29 1.12-1.87 3.12-2.94 2-1.06 4.59-1.06 2.55 0 4.49.9 1.95.91 3.05 1.86l-1.17 4.89q-.89-1.49-2.62-2.8-1.74-1.31-3.93-1.31-2.13 0-3.4 1.26-1.28 1.26-1.28 3.1 0 1.42.66 2.34.65.92 1.49 1.45.83.53 1.36.81l3.97 1.99q.7.35 1.78.99t2.15 1.68q1.06 1.05 1.77 2.55.71 1.51.71 3.63 0 2.73-1.3 4.85-1.29 2.13-3.52 3.33-2.23 1.21-5.1 1.21"></path><rect width="18.67" height="32.73" x="-9.34" y="-16.36" fill="none" rx="0" ry="0" transform="translate(233.08 156.22)"></rect><path fill="#ededed" d="M250.693 182.281h-4.14l6.9-13.75-8.99-18.13h4.32l4.53 9.21q.6 1.24 1.17 2.44.57 1.21 1.13 2.91.6-1.7 1.15-2.92.55-1.23 1.19-2.43l4.6-9.21h4.08z"></path><rect width="22.17" height="31.88" x="-11.09" y="-15.94" fill="none" rx="0" ry="0" transform="translate(256.05 166.84)"></rect><path fill="#ededed" d="M274.283 171.651h-3.83v-34h3.83z"></path><rect width="3.83" height="34" x="-1.92" y="-17" fill="none" rx="0" ry="0" transform="translate(272.87 155.15)"></rect><path fill="#ededed" d="m299.563 150.401-10.73 22.31-10.73-22.31h4.36l4.32 9.21q.6 1.24 1.13 2.44.53 1.21 1.03 2.94.53-1.73 1.08-2.95.55-1.23 1.12-2.43l4.35-9.21z"></path><rect width="21.46" height="22.31" x="-10.73" y="-11.15" fill="none" rx="0" ry="0" transform="translate(289.33 162.06)"></rect><path fill="#ededed" d="M312.493 171.931q-2.9 0-5.31-1.47-2.41-1.47-3.84-3.94-1.44-2.48-1.44-5.49 0-3.01 1.44-5.49 1.43-2.48 3.84-3.95 2.41-1.47 5.31-1.47 2.2 0 4.13.81 1.93.82 3.34 2.27v-2.8h3.55v21.25h-3.55v-2.8q-1.41 1.42-3.34 2.25-1.93.83-4.13.83m.5-3.47q2.02 0 3.66-1.01 1.65-1.01 2.62-2.69.98-1.68.98-3.73 0-2.06-.98-3.74-.97-1.68-2.62-2.69-1.64-1.01-3.66-1.01-2.02 0-3.67 1.01-1.64 1.01-2.62 2.69-.97 1.68-.97 3.74 0 2.05.97 3.73.98 1.68 2.62 2.69 1.65 1.01 3.67 1.01"></path><rect width="21.61" height="21.81" x="-10.8" y="-10.9" fill="none" rx="0" ry="0" transform="translate(313.2 161.53)"></rect><path fill="#ededed" d="M334.133 171.651h-3.82v-21.25h3.54v3.44q1.17-1.88 3.03-2.87 1.86-.99 4.02-.99 2.26 0 4.19 1.11 1.93 1.12 3.14 3.22 1.2 2.11 1.2 5.12v12.22h-3.82v-11.69q0-2.51-1.51-4.44-1.5-1.93-4.23-1.93-2.23 0-3.99 1.61-1.75 1.61-1.75 4.66z"></path><rect width="19.12" height="21.67" x="-9.56" y="-10.84" fill="none" rx="0" ry="0" transform="translate(340.37 161.32)"></rect><rect width="131.75" height="58.58" x="-65.88" y="-29.29" fill="none" rx="0" ry="0" transform="translate(286 156.13)"></rect></svg></svg>